<svg xmlns="http://www.w3.org/2000/svg" viewBox="0 0 113.4 113.4"><defs><clipPath id="a"><path d="M56.7 113.4A56.7 56.7 0 1 0 0 56.7a56.7 56.7 0 0 0 56.7 56.7" fill="none"/></clipPath></defs><g data-name="Layer 2"><g data-name="Layer 1"><path d="M56.7 113.4A56.7 56.7 0 1 0 0 56.7a56.71 56.71 0 0 0 56.7 56.7z" fill="#e6f4f7"/><g clip-path="url(#a)"><path d="M94.27 46.67c-1.1-12.11-9.67-20.9-20.4-20.9a20.28 20.28 0 0 0-17.38 10 19.55 19.55 0 0 0-17-10c-10.73 0-19.3 8.79-20.4 20.9a21.37 21.37 0 0 0 .64 7.95A34.07 34.07 0 0 0 30.21 72l26.26 23.87L58 94.48v-.07L83.19 72a34 34 0 0 0 10.44-17.38 21.62 21.62 0 0 0 .64-7.95zM56 91.53L32.16 69.89A31.23 31.23 0 0 1 22.59 54a18.74 18.74 0 0 1-.6-6.82L22 47c1-10.62 8.32-18.33 17.53-18.33 6.8 0 12.78 4.18 15.62 10.9l.09.22-11.79 11.8L65 54.46 48.51 69.61l12.25 7.65L56 91.53zM90.81 54a31.21 31.21 0 0 1-9.56 15.93l-21.31 19L64.24 76l-11-6.84 18.33-16.75-21.92-2.93 6.81-6.8.06-.14 1.18-1.18-.48-.48.58-1.36a17.51 17.51 0 0 1 16.05-10.9c9.21 0 16.58 7.71 17.54 18.46a19 19 0 0 1-.6 6.82z" fill="#5dbac4"/></g></g></g></svg>