<svg xmlns="http://www.w3.org/2000/svg" viewBox="0 0 113.4 113.4"><defs><style>.cls-4{fill:#5dbac4}</style><clipPath id="clip-path"><path d="M56.7 113.4A56.7 56.7 0 1 0 0 56.7a56.7 56.7 0 0 0 56.7 56.7" fill="none"/></clipPath></defs><g id="Layer_2" data-name="Layer 2"><g id="Layer_1-2" data-name="Layer 1"><path d="M56.7 113.4A56.7 56.7 0 1 0 0 56.7a56.71 56.71 0 0 0 56.7 56.7z" fill="#e6f4f7"/><g clip-path="url(#clip-path)"><path class="cls-4" d="M56.7 23.3A32.7 32.7 0 1 0 89.4 56a32.74 32.74 0 0 0-32.7-32.7zm0 63.22A30.52 30.52 0 1 1 87.22 56 30.55 30.55 0 0 1 56.7 86.52z"/><path class="cls-4" d="M57.79 51.66v-11a1.09 1.09 0 0 0-2.18 0v11a4.36 4.36 0 0 0-3.12 3.12h-7.78a1.09 1.09 0 1 0 0 2.18h7.78a4.35 4.35 0 1 0 5.3-5.3zm-1.09 6.39a2.18 2.18 0 1 1 2.18-2.18 2.19 2.19 0 0 1-2.18 2.18zM56.7 34.07A1.09 1.09 0 0 0 57.79 33v-1.11a1.09 1.09 0 1 0-2.18 0V33a1.09 1.09 0 0 0 1.09 1.09zM56.7 77.67a1.09 1.09 0 0 0-1.09 1.09v1.09a1.09 1.09 0 0 0 2.18 0v-1.09a1.09 1.09 0 0 0-1.09-1.09zM80.68 54.78h-1.09a1.09 1.09 0 1 0 0 2.18h1.09a1.09 1.09 0 0 0 0-2.18zM33.81 54.78h-1.09a1.09 1.09 0 1 0 0 2.18h1.09a1.09 1.09 0 1 0 0-2.18zM72.88 38.14l-.77.77a1.1 1.1 0 0 0 0 1.54 1.1 1.1 0 0 0 1.55 0l.77-.77a1.09 1.09 0 1 0-1.55-1.54zM39.74 71.28l-.77.77a1.1 1.1 0 0 0 0 1.54 1.09 1.09 0 0 0 1.54 0l.77-.77a1.08 1.08 0 0 0 0-1.54 1.1 1.1 0 0 0-1.54 0zM73.66 71.28a1.11 1.11 0 0 0-1.55 0 1.1 1.1 0 0 0 0 1.54l.77.77a1.09 1.09 0 0 0 1.55-1.54l-.77-.77zM40.51 38.14a1.08 1.08 0 0 0-1.54 0 1.1 1.1 0 0 0 0 1.54l.77.77a1.11 1.11 0 0 0 .77.32 1.09 1.09 0 0 0 .77-1.86l-.77-.77z"/></g></g></g></svg>