<?xml version="1.0" encoding="utf-8"?><svg width="143" height="26" viewBox="0 0 143 26" fill="none" xmlns="http://www.w3.org/2000/svg">
<path fill-rule="evenodd" clip-rule="evenodd" d="M6.47444 0C2.87 0 0 3.44369 0 13.0004C0 21.2206 1.60999 25.9995 6.47444 25.9995C11.7942 25.9995 12.4238 20.7293 12.4238 16.3735L8.57424 16.1969C8.50305 19.8163 8.1542 22.1336 6.64901 22.1336C5.24936 22.1336 4.76021 21.2211 4.76021 13.0009C4.76021 4.49775 5.7031 3.86459 6.64901 3.86459C7.76847 3.86459 8.29305 5.4109 8.29305 9.55777L12.3523 9.41683C12.3523 4.84957 11.7226 0 6.47444 0ZM19.4118 0.000456704C15.3888 0.000456704 12.7636 3.12788 12.7636 13.0009C12.7636 22.8725 15.3888 26 19.4118 26C23.4354 26 26.0603 22.8723 26.0603 13.0009C26.0603 11.6351 26.0083 10.4029 25.9111 9.28572C26.6967 11.9174 28.6846 13.5478 30.4711 15.0128C32.2461 16.4685 33.8221 17.761 33.8221 19.7105C33.8221 20.7294 33.2975 22.1336 31.792 22.1336C29.8322 22.1336 29.8322 19.6757 29.8322 18.2699V18.2695H25.7729C25.7729 21.7139 26.7539 25.9995 31.6179 25.9995C34.2918 25.9995 36.144 24.6946 37.1075 22.7223V25.508H40.4676V7.1681H40.5369L43.5815 25.508H46.1007L49.1808 7.1681H49.251V25.508H53.3098V13.4803C53.3949 22.9703 55.9976 26 59.9548 26C63.5801 26 66.0689 23.4586 66.5266 15.7366V25.508H71.0753V15.4949H72.8957C76.2237 15.4949 78.0204 13.6586 78.651 10.7183C78.6166 11.4369 78.5972 12.1942 78.5972 13.0009C78.5972 22.8725 81.222 26 85.2449 26C89.2703 26 91.8948 22.8723 91.8948 13.0009C91.8948 3.12787 89.2703 0.000445286 85.2449 0.000445286C82.0369 0.000445286 79.7196 1.99362 78.9117 7.80588C78.8548 2.52392 76.1655 0.493275 71.0753 0.493275H66.5266V10.2647C66.0689 2.54158 63.5801 0.000445971 59.9548 0.000445971C55.9976 0.000445971 53.3949 3.03021 53.3098 12.5214V0.493275H47.3955L45.2611 13.3162H45.1918L43.1613 0.493275H37.1075V6.02991C36.6844 2.40556 35.0329 0.000445971 31.4433 0.000445971C27.6348 0.000445971 25.6083 2.99297 25.5655 6.69624C24.6265 1.73622 22.4075 0.000445971 19.4118 0.000445971V0.000456704ZM91.9921 25.5081V0.493286H96.5417V21.643H102.351V25.5081H91.9921ZM103.08 0.493286V25.5081H107.628V0.493286H103.08ZM108.393 4.35787V0.493286H120.781V3.99973L121.271 0.493286H127.85L130.683 23.4988V0.493286H135.128L139.292 13.7025H139.361V0.493286H143V25.5081H139.466L134.602 10.3646H134.531V25.5081H130.93H130.683H126.555L125.892 19.9567H122.216L121.587 25.5081H117.773L120.731 4.35787H116.862V25.5081H112.313V4.35787H108.393ZM19.4118 3.86459C20.4623 3.86459 21.0913 4.95402 21.0913 10.3646V15.6354C21.0913 21.0457 20.4623 22.1336 19.4118 22.1336C18.3612 22.1336 17.7317 21.0457 17.7317 15.6354V10.3646C17.7317 4.95402 18.3612 3.86459 19.4118 3.86459ZM33.1567 7.62481C33.1567 6.21907 33.1567 3.86459 31.3367 3.86459C30.253 3.86459 29.6229 4.77866 29.6229 6.149C29.6229 7.99128 31.1733 9.30606 32.9303 10.7962C34.4624 12.0955 36.1517 13.5281 37.1075 15.56V7.62481H33.1567ZM59.9548 3.86459C61.0038 3.86459 61.634 4.95402 61.634 10.3646V15.6354C61.634 21.0457 61.0038 22.1336 59.9548 22.1336C58.905 22.1336 58.2748 21.0457 58.2748 15.6354V10.3646C58.2748 4.95402 58.905 3.86459 59.9548 3.86459ZM86.9254 10.3646C86.9254 4.95402 86.2968 3.86459 85.2453 3.86459C84.1962 3.86459 83.5662 4.95402 83.5662 10.3646V15.6354C83.5662 21.0457 84.1962 22.1336 85.2453 22.1336C86.2968 22.1336 86.9254 21.0457 86.9254 15.6354V10.3646ZM71.1122 4.35786H71.46C72.965 4.35786 74.3652 4.46281 74.3652 8.08196C74.3652 11.1031 73.3501 11.8417 71.4956 11.8417H71.1122V4.35786ZM124.175 4.35786H124.105L122.673 16.3035H125.505L124.175 4.35786Z" fill="white"/>
</svg>
