<?xml version="1.0" encoding="utf-8"?><svg width="112" height="60" viewBox="0 0 112 60" fill="none" xmlns="http://www.w3.org/2000/svg">
<path fill-rule="evenodd" clip-rule="evenodd" d="M41.4709 7.06629C41.4709 10.7308 38.2583 13.8268 34.4562 13.8268C30.5324 13.8268 27.3396 10.7258 27.3396 6.91378C27.3396 3.10173 30.502 0 34.3885 0C37.5942 0 40.096 2.15805 40.822 4.188L40.9989 4.68252H37.495L37.3858 4.51514C36.8823 3.74114 35.8166 3.16731 34.3375 3.16731C31.6213 3.16731 30.8081 5.26359 30.8081 6.93094C30.8081 8.58417 31.6581 10.5844 34.4562 10.5844C35.6858 10.5844 36.8111 10.3228 37.5174 8.86327H34.3995V6.04408H41.4709V7.06629ZM79.3774 47.3521C80.8591 48.2699 82.6101 48.8029 84.487 48.8029C85.8249 48.8029 87.1048 48.5362 88.2697 48.0481C89.8578 47.5376 91.111 46.5941 92.0598 45.6022L90.9164 48.3614H96.7669L96.87 48.1006H97.5739L98.6093 45.5052H103.068L104.199 48.3614H110.041L109.938 48.1006H110.889L103.89 30.6009H102.999L102.922 30.4061H98.3567L93.9506 41.0389H93.8198L93.8175 40.9985L88.1609 40.9992L88.0662 41.2364C88.0468 41.2848 87.8167 41.838 87.3402 42.4157C86.5731 43.1085 85.5679 43.5149 84.487 43.5149C82.1507 43.5149 80.2498 41.6474 80.2498 39.3521C80.2498 37.0568 82.1507 35.1892 84.487 35.1892C85.048 35.1892 85.5911 35.3013 86.0935 35.5042C87.3261 36.1684 88.0107 37.4087 88.0195 37.4258L88.1271 37.626H93.6114L93.6965 37.5402H93.9354L93.857 37.228C93.8604 37.2128 93.8635 37.1974 93.8663 37.1818H94.4389C94.5021 37.1185 94.5245 36.6858 94.4751 36.5508C93.9451 35.1089 91.9925 31.4803 87.872 30.505C86.8139 30.1144 85.672 29.9012 84.487 29.9012C82.922 29.9012 81.444 30.2734 80.1365 30.9284C76.6668 32.3163 74.5971 35.3101 74.5971 39.317C74.5971 42.8507 76.4397 45.753 79.3774 47.3521ZM101.74 41.5155H99.8833L100.816 38.7092L101.74 41.5155ZM73.7664 48.3614H68.9238V30.4061H73.7664V30.6009H73.8513V48.1006H73.7664V48.3614ZM98.95 60L98.6963 59.8601C97.8809 59.4338 76.7147 54.3639 45.3144 54.3639C30.6815 54.3639 16.1326 55.4704 2.07124 57.6536L2.00099 57.3472C1.54106 57.4156 1.08032 57.4853 0.618787 57.5564C0.618787 57.5564 1.07615 57.4235 1.96653 57.1969L1.9039 56.9238C2.10928 56.864 22.8647 50.8946 56.162 50.8946C73.7645 50.8946 91.7771 52.5421 109.699 55.7899L112 56.207L110.815 56.3724C110.89 56.3857 110.965 56.3991 111.039 56.4125C107.363 56.9208 100.898 58.9541 100.01 59.8441C99.9304 59.8006 99.7143 59.7274 99.3672 59.6296C99.275 59.689 99.2032 59.7441 99.1538 59.7941L98.95 60ZM90.5737 28.632C94.3595 28.632 97.5576 25.6244 97.5576 22.0644V21.0711H90.5174V23.8099H93.6209C92.9184 25.2279 91.798 25.4818 90.5737 25.4818C87.7882 25.4818 86.9428 23.5384 86.9428 21.9325C86.9428 20.312 87.7521 18.276 90.4554 18.276C91.9284 18.276 92.9891 18.8338 93.4908 19.5857L93.5992 19.7485H97.0883L96.9118 19.2681C96.1892 17.2953 93.6981 15.199 90.5064 15.199C86.6377 15.199 83.4898 18.2119 83.4898 21.9153C83.4898 25.6191 86.6674 28.632 90.5737 28.632ZM52.5623 6.92941C52.5623 4.88651 50.9611 3.22526 48.9925 3.22526C47.024 3.22526 45.4228 4.88651 45.4228 6.92941C45.4228 8.9544 47.024 10.6023 48.9925 10.6023C50.9611 10.6023 52.5623 8.9544 52.5623 6.92941ZM55.9217 6.94809C55.9217 10.7407 52.8129 13.8268 48.9918 13.8268C45.1707 13.8268 42.0619 10.7407 42.0619 6.94809C42.0619 3.1166 45.1707 0 48.9918 0C52.8129 0 55.9217 3.1166 55.9217 6.94809ZM63.6103 3.22526C65.5785 3.22526 67.18 4.88651 67.18 6.92941C67.18 8.9544 65.5785 10.6023 63.6103 10.6023C61.6425 10.6023 60.0409 8.9544 60.0409 6.92941C60.0409 4.88651 61.6425 3.22526 63.6103 3.22526ZM63.6122 13.8268C67.4333 13.8268 70.5421 10.7407 70.5421 6.94809C70.5421 3.1166 67.4333 0 63.6122 0C59.7907 0 56.6823 3.1166 56.6823 6.94809C56.6823 10.7407 59.7907 13.8268 63.6122 13.8268ZM78.4349 4.13233C77.4917 3.3324 76.2865 3.16998 74.7652 3.16998H74.6876V10.6572H74.8203C76.1484 10.6572 76.9517 10.5722 77.9241 10.0891C79.0278 9.5267 79.7436 8.29288 79.7436 6.94809C79.7436 5.86831 79.2423 4.7889 78.4349 4.13233ZM83.0437 6.94809C83.0437 9.38677 81.6916 11.6493 79.5998 12.7112C78.5011 13.2816 76.9231 13.5721 74.912 13.5721H71.3879V0.255459H74.8568C78.3334 0.255459 79.8425 1.14003 80.675 1.80651C82.1134 2.95264 83.0437 4.97153 83.0437 6.94809ZM24.057 21.7632V28.611H27.5187V15.5227H22.8807L20.1747 23.0782L17.4375 15.5227H12.7998V28.611H16.2619V21.8021L18.9036 28.611H21.4156L24.057 21.7632ZM31.5007 22.0804C31.5007 24.028 33.0787 25.6118 35.0183 25.6118C36.958 25.6118 38.5363 24.028 38.5363 22.0804C38.5363 20.1164 36.958 18.5181 35.0183 18.5181C33.0787 18.5181 31.5007 20.1164 31.5007 22.0804ZM28.0413 22.1006C28.0413 18.3355 31.1721 15.2726 35.0202 15.2726C38.8687 15.2726 41.9999 18.3355 41.9999 22.1006C41.9999 25.8284 38.8687 28.8615 35.0202 28.8615C31.1721 28.8615 28.0413 25.8284 28.0413 22.1006ZM46.3569 18.3873H47.4884C49.2808 18.3873 49.3713 19.6432 49.3713 19.8957C49.3713 20.3585 49.188 21.4368 47.4884 21.4368H46.3569V18.3873ZM51.1269 22.9303C52.1055 22.0087 52.4527 20.6201 52.4527 19.7111C52.4527 17.9828 51.4361 16.919 50.8299 16.439C50.0187 15.7969 49.0298 15.5227 47.523 15.5227H42.8952V28.611H46.3569V24.6342L49.1724 28.611H52.9354L49.3926 23.9029C49.9217 23.7493 50.5184 23.4984 51.1269 22.9303ZM70.1667 28.611H67.0849V15.5227H70.1667V28.611ZM57.2707 21.3045L61.995 28.611H65.5739V15.5227H62.1122V22.8182L57.4403 15.5227H53.9173V28.611H57.2707V21.3045ZM79.6432 28.611L74.9188 21.3045V28.611H71.5651V15.5227H75.0881L79.76 22.8182V15.5227H83.222V28.611H79.6432ZM9.19927 36.2946L7.3372 41.9002H11.0613L9.19927 36.2946ZM0 48.1006L7.31553 30.6009H11.4709L18.4704 48.1006H13.3144L12.1548 45.1956H6.31413L5.15529 48.1006H0ZM28.6068 40.9333L24.8865 30.6009H18.9287V48.1006H23.3439V38.2944L26.9258 48.1006H30.2437L33.8248 38.2384V48.1006H38.2404V30.6009H32.2823L28.6068 40.9333ZM51.1965 48.1006H40.5106V30.6009H51.1965V34.2139H45.0794V37.2722H50.9227V40.8856H45.0794V44.1063H51.1965V48.1006ZM58.1268 34.2139H59.9291C62.6861 34.2139 62.8257 36.0357 62.8257 36.4013C62.8257 37.072 62.5435 38.633 59.9291 38.633H58.1268V34.2139ZM65.1278 40.7971C66.5194 39.5751 67.0142 37.3584 67.0142 36.1512C67.0142 33.8605 65.567 32.1794 64.7037 31.5427C63.5513 30.6924 62.138 30.6009 59.9786 30.6009H53.7348V48.1006H58.1268V42.3939L62.0312 48.1006H67.3253L62.7777 42.0901C63.5829 41.8887 64.1842 41.6169 65.1278 40.7971Z" fill="white"/>
</svg>
