<?xml version="1.0" encoding="utf-8"?><svg width="45" height="44" viewBox="0 0 45 44" fill="none" xmlns="http://www.w3.org/2000/svg">
	<path fill-rule="evenodd" clip-rule="evenodd" d="M22.0781 43.7171C34.2714 43.7171 44.1562 33.9969 44.1562 22.0065C44.1562 10.0162 34.2714 0.296021 22.0781 0.296021C9.88477 0.296021 0 10.0162 0 22.0065C0 33.9969 9.88477 43.7171 22.0781 43.7171ZM26.6816 27.1149H26.8903C27.6365 27.1149 28.247 26.522 28.247 25.7972V15.6613C28.247 14.937 27.6365 14.344 26.8903 14.344H26.6816C25.9354 14.344 25.3249 14.937 25.3249 15.6613V25.7972C25.3249 26.522 25.9354 27.1149 26.6816 27.1149ZM13.0451 27.1149H13.2538C14 27.1149 14.6105 26.5085 14.6105 25.7673V20.4807C14.6105 19.7395 14 19.1331 13.2538 19.1331H13.0451C12.2989 19.1331 11.6884 19.7395 11.6884 20.4807V25.7673C11.6884 26.5085 12.2989 27.1149 13.0451 27.1149ZM17.2659 27.1149H17.4746C18.2208 27.1149 18.8313 26.5085 18.8313 25.7673V20.4807C18.8313 19.7395 18.2208 19.1331 17.4746 19.1331H17.2659C16.5197 19.1331 15.9092 19.7395 15.9092 20.4807V25.7673C15.9092 26.5085 16.5197 27.1149 17.2659 27.1149ZM21.6954 27.1149H21.4867C20.7405 27.1149 20.13 26.5085 20.13 25.7673V20.4807C20.13 19.7395 20.7405 19.1331 21.4867 19.1331H21.6954C22.4416 19.1331 23.0521 19.7395 23.0521 20.4807V25.7673C23.0521 26.5085 22.4416 27.1149 21.6954 27.1149ZM30.7864 27.1149H30.5777C29.8315 27.1149 29.221 26.5085 29.221 25.7673V20.4807C29.221 19.7395 29.8315 19.1331 30.5777 19.1331H30.7864C31.5326 19.1331 32.1431 19.7395 32.1431 20.4807V25.7673C32.1431 26.5085 31.5326 27.1149 30.7864 27.1149Z" fill="white"/>
</svg>
