<?xml version="1.0" encoding="utf-8"?><svg width="147" height="40" viewBox="0 0 147 40" fill="none" xmlns="http://www.w3.org/2000/svg">
	<path fill-rule="evenodd" clip-rule="evenodd" d="M40.0856 20C40.0856 31.0456 31.1121 40 20.0428 40C8.97354 40 0 31.0456 0 20C0 8.95436 8.97354 0 20.0428 0C31.1121 0 40.0856 8.95436 40.0856 20ZM24.4114 24.7059H24.2219C23.5445 24.7059 22.9903 24.1597 22.9903 23.492V14.1547C22.9903 13.4874 23.5445 12.9412 24.2219 12.9412H24.4114C25.0888 12.9412 25.643 13.4874 25.643 14.1547V23.492C25.643 24.1597 25.0888 24.7059 24.4114 24.7059ZM12.032 24.7059H11.8426C11.1651 24.7059 10.6109 24.1472 10.6109 23.4644V18.5944C10.6109 17.9116 11.1651 17.3529 11.8426 17.3529H12.032C12.7094 17.3529 13.2636 17.9116 13.2636 18.5944V23.4644C13.2636 24.1472 12.7094 24.7059 12.032 24.7059ZM15.8637 24.7059H15.6743C14.9968 24.7059 14.4426 24.1472 14.4426 23.4644V18.5944C14.4426 17.9116 14.9968 17.3529 15.6743 17.3529H15.8637C16.5411 17.3529 17.0953 17.9116 17.0953 18.5944V23.4644C17.0953 24.1472 16.5411 24.7059 15.8637 24.7059ZM19.506 24.7059H19.6954C20.3728 24.7059 20.9271 24.1472 20.9271 23.4644V18.5944C20.9271 17.9116 20.3728 17.3529 19.6954 17.3529H19.506C18.8286 17.3529 18.2743 17.9116 18.2743 18.5944V23.4644C18.2743 24.1472 18.8286 24.7059 19.506 24.7059ZM27.7589 24.7059H27.9483C28.6258 24.7059 29.18 24.1472 29.18 23.4644V18.5944C29.18 17.9116 28.6258 17.3529 27.9483 17.3529H27.7589C27.0815 17.3529 26.5273 17.9116 26.5273 18.5944V23.4644C26.5273 24.1472 27.0815 24.7059 27.7589 24.7059ZM52.6896 4.41176H50.6965V17.0588H52.6896V8.60309L55.9505 17.0588H57.5268L60.7882 8.69383V17.0588H62.7812V4.41176H60.7882L56.7477 14.0957L52.6896 4.41176ZM71.9094 7.32068L73.7284 13.5898H70.0908L71.9094 7.32068ZM69.5661 15.4508H74.2706L74.7428 17.0588H76.9291L72.8014 4.41176H71.0349L66.9077 17.0588H69.0939L69.5661 15.4508ZM82.0707 6.36309H78.4028V4.41176H87.8347V6.36309H84.1488V17.0588H82.0707V6.36309ZM90.7822 6.36309H94.4501V17.0588H96.5282V6.36309H100.214V4.41176H90.7822V6.36309ZM104.341 4.41176H106.365V9.85017H111.453V4.41176H113.478V17.0588H111.453V11.7112H106.365V17.0588H104.341V4.41176ZM125.857 4.41176H118.488V17.0588H125.857V15.1978H120.586V11.7112H125.857V9.85017H120.586V6.27275H125.857V4.41176ZM129.445 4.68957H131.621L134.606 13.6715L137.428 4.68957H138.956L141.779 13.6715L144.763 4.68957H146.939L142.588 17.0421H141.096L138.201 8.23663L135.289 17.0421H133.796L129.445 4.68957ZM52.7212 22.3529H50.6965V35H52.7212V29.6523H57.809V35H59.8337V22.3529H57.809V27.7913H52.7212V22.3529ZM65.1392 30.8002V22.3529H67.16V30.6738C67.16 32.4964 68.1616 33.435 69.7079 33.435C71.2543 33.435 72.2559 32.4964 72.2559 30.6738V22.3529H74.2763V30.8002C74.2763 33.7423 72.4668 35.2941 69.7079 35.2941C66.9491 35.2941 65.1392 33.7423 65.1392 30.8002ZM80.4909 30.8584H78.4028C78.4028 33.6896 80.0915 35.2941 83.033 35.2941C85.5565 35.2941 87.2452 33.8339 87.2452 31.6695C87.2452 29.9568 86.4463 28.8388 84.8484 28.19L82.9781 27.4322C81.4892 26.8375 80.8723 26.2601 80.8723 25.3949C80.8723 24.4392 81.5622 23.8256 82.7603 23.8256C84.1766 23.8256 84.9392 24.6195 84.9392 26.0076H87.0273C87.0273 23.6277 85.3568 22.0588 82.8329 22.0588C80.4365 22.0588 78.766 23.4654 78.766 25.5211C78.766 27.126 79.6012 28.2621 81.1991 28.8748L83.2691 29.7043C84.7031 30.2814 85.1571 30.7679 85.1571 31.724C85.1571 32.8601 84.3945 33.4908 83.0145 33.4908C81.4352 33.4908 80.4909 32.4994 80.4909 30.8584ZM90.4874 30.8584H92.5756C92.5756 32.4994 93.5198 33.4908 95.0991 33.4908C96.4791 33.4908 97.2417 32.8601 97.2417 31.724C97.2417 30.7679 96.7878 30.2814 95.3537 29.7043L93.2837 28.8748C91.6859 28.2621 90.8506 27.126 90.8506 25.5211C90.8506 23.4654 92.5211 22.0588 94.9175 22.0588C97.4415 22.0588 99.112 23.6277 99.112 26.0076H97.0238C97.0238 24.6195 96.2612 23.8256 94.8449 23.8256C93.6469 23.8256 92.9569 24.4392 92.9569 25.3949C92.9569 26.2601 93.5739 26.8375 95.0628 27.4322L96.933 28.19C98.5309 28.8388 99.3299 29.9568 99.3299 31.6695C99.3299 33.8339 97.6412 35.2941 95.1177 35.2941C92.1761 35.2941 90.4874 33.6896 90.4874 30.8584ZM111.12 22.3529H103.751V35H111.12V33.139H105.849V29.6523H111.12V27.7913H105.849V24.2139H111.12V22.3529ZM125.268 22.3529L121.438 29.7657V34.7059H119.415V29.7693L114.657 22.3529H117.025L120.371 27.6806L123.024 22.3529H125.268Z" fill="white"/>
</svg>
