<?xml version="1.0" encoding="UTF-8"?>
<svg width="115px" height="50px" viewBox="0 0 115 50" version="1.1" xmlns="http://www.w3.org/2000/svg" xmlns:xlink="http://www.w3.org/1999/xlink">
    <title>Logo</title>
    <g id="Page-1" stroke="none" stroke-width="1" fill="none" fill-rule="evenodd">
        <g id="Artboard" transform="translate(-135.000000, -15.000000)" fill="#FFFFFF">
            <g id="Logo" transform="translate(135.000000, 15.000000)">
                <path d="M97.7545001,39.9299534 C97.6098673,39.9010477 97.4656275,39.8717461 97.3209947,39.8428405 L97.407853,38.9986379 C97.5524858,39.0279395 97.6680348,39.0861467 97.8122747,39.1150523 C97.9565145,39.1443539 98.1011473,39.1732595 98.2166963,39.1732595 C98.3609361,39.1732595 98.505569,39.1443539 98.6502018,39.0568451 C98.7653578,38.9986379 98.8812999,38.8822234 98.9677652,38.7951106 C99.0542305,38.6786962 99.1410888,38.5622817 99.1988633,38.4165657 C99.2566378,38.2712456 99.3144124,38.1548312 99.3721869,38.0091152 L100.007707,36.3793131 L97.1480641,29.3073341 L98.1589218,29.3073341 L100.469903,35.2444703 L102.723109,29.3073341 L103.705276,29.3073341 L100.094172,38.5329801 C99.9499322,38.9404307 99.7188341,39.3189756 99.3721869,39.6100116 C99.0255397,39.9010477 98.5924273,40.0170662 98.1589218,40.0170662 C98.0433728,39.9592549 97.8987399,39.9592549 97.7545001,39.9299534 L97.7545001,39.9299534 Z M91.4283859,36.233597 C90.9948804,36.0593714 90.6191495,35.7972409 90.3015861,35.4772992 C89.9836297,35.1280559 89.7238408,34.749511 89.579208,34.3131548 C89.4058844,33.8474971 89.3194191,33.3232362 89.3194191,32.8286728 C89.3194191,32.3341094 89.4058844,31.8391501 89.579208,31.3734924 C89.7529246,30.9371362 89.9836297,30.5296857 90.3015861,30.209348 C90.6191495,29.8894063 90.9948804,29.6272758 91.3993021,29.4237485 C91.8324146,29.2198253 92.3236946,29.1327125 92.8149746,29.1327125 C93.3058615,29.1327125 93.7971415,29.2198253 94.230254,29.4237485 C95.0100136,29.7729919 95.6168426,30.4128753 95.8766315,31.2277763 C96.0212643,31.6063212 96.0790388,32.0137717 96.0790388,32.4212223 L96.0790388,33.0615017 L90.2147278,33.0615017 C90.2147278,33.3232362 90.2728954,33.556461 90.3306699,33.7892899 C90.5039935,34.4584749 90.9371059,35.0405471 91.5435419,35.3897904 C91.9483566,35.6226192 92.4101598,35.7097321 92.8436653,35.6808265 C93.3058615,35.6808265 93.7680577,35.564412 94.1724794,35.3604888 C94.5769011,35.1569615 94.9235483,34.8370198 95.1833371,34.4584749 L95.8479407,35.0116414 C95.5303773,35.5062048 95.0677881,35.9136553 94.5478173,36.1757858 C93.9991559,36.4086147 93.4214106,36.5246331 92.8436653,36.5246331 C92.3814691,36.4957275 91.8901891,36.4086147 91.4283859,36.233597 L91.4283859,36.233597 Z M91.5726257,30.209348 C91.0239642,30.5296857 90.5904587,31.0535506 90.3880514,31.69383 C90.3306699,31.8680557 90.2728954,32.0137717 90.2728954,32.217695 L95.2411117,32.217695 C95.2411117,31.8973573 95.1833371,31.6063212 95.0677881,31.3445867 C94.9526321,31.0824563 94.7793085,30.8207218 94.5478173,30.6167985 C94.3167192,30.4128753 94.0569304,30.2386496 93.7680577,30.1218392 C93.4791851,30.0058207 93.1616217,29.9476135 92.8149746,29.9476135 C92.3814691,29.8894063 91.9483566,30.0058207 91.5726257,30.209348 L91.5726257,30.209348 Z M83.6575155,36.1464842 C83.1666285,35.9136553 82.7618138,35.5355064 82.5020249,35.0694527 L83.3108683,34.5166821 C83.4841919,34.895227 83.8021483,35.1862631 84.1487955,35.3604888 C84.5241334,35.564412 84.9285551,35.6515249 85.3329768,35.6515249 C85.5349911,35.6515249 85.7373985,35.6226192 85.910722,35.564412 C86.0840456,35.5062048 86.2573692,35.418696 86.4306928,35.3026775 C86.5753256,35.1862631 86.7195654,35.0405471 86.8060307,34.895227 C86.892889,34.7206054 86.9506635,34.5455877 86.9506635,34.3420605 C86.9797473,34.0510244 86.8638052,33.7892899 86.6327071,33.6142723 C86.402002,33.4400466 86.1418201,33.3232362 85.8820313,33.2361233 C85.5640749,33.1490105 85.2174277,33.0615017 84.8707805,33.0032944 C84.5241334,32.9450872 84.1774862,32.8286728 83.8595298,32.6833527 C83.5706572,32.5669383 83.3108683,32.3630151 83.108461,32.1012806 C82.8773628,31.8098485 82.7618138,31.4316996 82.7908976,31.0535506 C82.7908976,30.733213 82.8486721,30.4421769 82.9933049,30.1511408 C83.1375447,29.8894063 83.3108683,29.685483 83.5419664,29.5108614 C83.7730645,29.3362397 84.0328534,29.2198253 84.2930353,29.1327125 C84.5819079,29.0452036 84.8707805,29.016298 85.1596532,29.016298 C85.6796239,28.9869964 86.1709039,29.1034109 86.6617909,29.3362397 C87.0949033,29.5690686 87.4128597,29.9183119 87.6439579,30.355064 L86.8351145,30.8496274 C86.6904816,30.5585913 86.4597766,30.2968568 86.1995947,30.1218392 C85.910722,29.9476135 85.5349911,29.8601047 85.1883439,29.8601047 C85.0150204,29.8601047 84.8416968,29.8894063 84.6683732,29.9476135 C84.4950496,30.0058207 84.3508098,30.0640279 84.20657,30.1511408 C84.0619372,30.2386496 83.9463881,30.355064 83.8595298,30.5003841 C83.7730645,30.6461001 83.71529,30.8207218 83.71529,30.9949475 C83.6862062,31.2570779 83.8017553,31.5188124 84.0328534,31.69383 C84.2639515,31.8680557 84.5241334,31.9848661 84.7839222,32.0430733 C85.1018787,32.1301862 85.4485258,32.217695 85.795173,32.2759022 C86.1418201,32.3341094 86.4884673,32.4212223 86.8060307,32.5669383 C87.0949033,32.7122584 87.3550852,32.9161816 87.5574926,33.1779161 C87.7881977,33.4982538 87.9037467,33.8764027 87.875056,34.2838532 C87.875056,34.6041909 87.8172814,34.9241326 87.6726486,35.2444703 C87.5284088,35.5062048 87.3550852,35.7390337 87.1239871,35.9136553 C86.892889,36.088277 86.6040164,36.233597 86.3151437,36.3211059 C85.9975803,36.4086147 85.6796239,36.4668219 85.3620605,36.4668219 C84.7552315,36.4957275 84.20657,36.3793131 83.6575155,36.1464842 L83.6575155,36.1464842 Z M77.2158522,36.1464842 C76.7245722,35.9136553 76.3201505,35.5355064 76.0603617,35.0694527 L76.868812,34.5166821 C77.0425286,34.895227 77.360092,35.1862631 77.7067392,35.3604888 C78.0533863,35.564412 78.4864988,35.6515249 78.8913135,35.6515249 C79.0933278,35.6515249 79.2957352,35.6226192 79.4686657,35.564412 C79.6419893,35.5062048 79.8157059,35.418696 79.9886365,35.3026775 C80.1332693,35.1862631 80.2775091,35.0405471 80.3643674,34.895227 C80.4508327,34.7206054 80.5086072,34.5455877 80.5086072,34.3420605 C80.537691,34.0510244 80.4221419,33.7892899 80.1910438,33.6142723 C79.9599457,33.4400466 79.6997638,33.3232362 79.439975,33.2361233 C79.1220186,33.1490105 78.7753714,33.0615017 78.4287242,33.0032944 C78.0820771,32.9450872 77.7354299,32.8286728 77.4178665,32.6833527 C77.1289939,32.5669383 76.868812,32.3630151 76.6667977,32.1012806 C76.4356996,31.8098485 76.3201505,31.4316996 76.3488413,31.0535506 C76.3488413,30.733213 76.4066158,30.4421769 76.5512486,30.1511408 C76.6954884,29.8894063 76.868812,29.685483 77.0999101,29.5108614 C77.3310082,29.3362397 77.5911901,29.2198253 77.850979,29.1327125 C78.1398516,29.0452036 78.4287242,29.016298 78.7175969,29.016298 C79.2375676,28.9869964 79.7288476,29.1034109 80.1910438,29.3362397 C80.6241563,29.5690686 80.9711965,29.9183119 81.1732108,30.355064 L80.3643674,30.8496274 C80.2197346,30.5585913 79.9886365,30.2968568 79.7288476,30.1218392 C79.439975,29.9476135 79.064244,29.8601047 78.7175969,29.8601047 C78.5442733,29.8601047 78.3709497,29.8894063 78.1976261,29.9476135 C78.0243026,30.0058207 77.8800627,30.0640279 77.7354299,30.1511408 C77.5911901,30.2386496 77.4756411,30.355064 77.3887828,30.5003841 C77.3023175,30.6461001 77.2445429,30.8207218 77.2445429,30.9949475 C77.2154592,31.2570779 77.3310082,31.5188124 77.5621063,31.69383 C77.7932044,31.8680557 78.0533863,31.9848661 78.3131752,32.0430733 C78.6311316,32.1301862 78.9777788,32.217695 79.3244259,32.2759022 C79.6710731,32.3341094 80.0177203,32.4212223 80.3352836,32.5669383 C80.6241563,32.7122584 80.8843382,32.9161816 81.0863525,33.1779161 C81.3174506,33.4982538 81.4329997,33.8764027 81.4043089,34.2838532 C81.4043089,34.6041909 81.3465344,34.9241326 81.2019016,35.2444703 C81.0576617,35.5062048 80.8843382,35.7390337 80.6532401,35.9136553 C80.4221419,36.088277 80.1332693,36.233597 79.8443967,36.3211059 C79.5268333,36.4086147 79.2088769,36.4668219 78.8913135,36.4668219 C78.3131752,36.4957275 77.7358229,36.3793131 77.2158522,36.1464842 L77.2158522,36.1464842 Z M69.7051637,36.233597 C69.3872072,36.088277 69.0983346,35.8554481 68.8959272,35.564412 C68.6939129,35.2733759 68.5492801,34.9534342 68.4915056,34.6041909 C68.433731,34.225646 68.3763495,33.8474971 68.3763495,33.4689522 L68.3763495,29.2780325 L69.2716582,29.2780325 L69.2716582,33.410745 C69.2716582,33.7017811 69.3003489,33.9635156 69.3581235,34.2545516 C69.415898,34.5166821 69.5027563,34.749511 69.6183053,34.9823399 C69.7338544,35.1862631 69.9358687,35.3897904 70.1382761,35.5062048 C70.4271487,35.6515249 70.7160214,35.7097321 71.0335848,35.7097321 C71.3515412,35.7097321 71.6694976,35.6515249 71.987061,35.5355064 C72.2759336,35.418696 72.5361155,35.2444703 72.7668206,35.0116414 C72.9979187,34.749511 73.1716353,34.4584749 73.2867913,34.1092316 C73.4314241,33.7017811 73.4891987,33.2654249 73.4605079,32.8286728 L73.4605079,29.3073341 L74.3558166,29.3073341 L74.3558166,34.371362 L74.3558166,34.8370198 C74.3558166,35.0116414 74.3849004,35.2151687 74.3849004,35.418696 C74.3849004,35.6226192 74.3849004,35.7972409 74.4135911,35.9718626 L74.4135911,36.3504075 L73.5178894,36.3504075 C73.5178894,36.088277 73.4891987,35.8265425 73.4891987,35.5937136 C73.4891987,35.418696 73.4891987,35.2733759 73.4605079,35.1280559 L73.4023404,35.1280559 C73.200326,35.5355064 72.8823696,35.8847497 72.5070317,36.1175786 C72.0739193,36.4086147 71.5539485,36.5539347 71.0335848,36.5246331 C70.5717816,36.4957275 70.1095853,36.4086147 69.7051637,36.233597 L69.7051637,36.233597 Z M64.7652451,36.3211059 L64.7652451,31.1988707 L58.785385,31.1988707 L58.785385,36.3211059 L57.7745273,36.3211059 L57.7745273,25.523865 L58.785385,25.523865 L58.785385,30.2675552 L64.7652451,30.2675552 L64.7652451,25.523865 L65.7761028,25.523865 L65.7761028,36.3211059 L64.7652451,36.3211059 Z M99.0255397,21.4493597 C98.5924273,21.2747381 98.2166963,21.0126076 97.8987399,20.6926659 C97.5811765,20.3434226 97.3209947,19.9648777 97.1767549,19.5285215 C97.0034313,19.0628638 96.916573,18.5389988 96.916573,18.0151339 C96.916573,17.5201745 97.0034313,17.0256112 97.1767549,16.5599534 C97.3500784,16.1232013 97.5811765,15.7157508 97.8987399,15.3958091 C98.5633435,14.6973225 99.4590452,14.3187776 100.412128,14.3480792 C100.903408,14.3480792 101.394295,14.435192 101.827408,14.6391153 C102.60756,14.9883586 103.214389,15.628638 103.474178,16.443539 C103.618811,16.8216879 103.676193,17.2291385 103.676193,17.636589 L103.676193,18.2768684 L97.8122747,18.2768684 C97.8122747,18.5389988 97.8700492,18.7718277 97.9278237,19.0335622 C98.014289,19.3538999 98.1589218,19.644936 98.3322454,19.9066705 C98.5633435,20.1977066 98.8231324,20.459837 99.1410888,20.6344587 C99.5455105,20.8672875 100.007707,20.9544004 100.441212,20.9254948 C100.903408,20.9254948 101.365605,20.8090803 101.798717,20.6051571 C102.203139,20.4016298 102.549786,20.0812921 102.809575,19.7031432 L103.474178,20.2559138 C103.156615,20.7508731 102.694026,21.1579277 102.174448,21.4200581 C101.625393,21.652887 101.047648,21.7693014 100.441212,21.7693014 C99.9786229,21.7110942 99.4877359,21.6239814 99.0255397,21.4493597 L99.0255397,21.4493597 Z M99.1701726,15.4540163 C98.8812999,15.628638 98.5924273,15.8614668 98.3900199,16.1525029 C98.2166963,16.3853318 98.0724565,16.6470663 97.9855982,16.9091967 C97.9278237,17.0838184 97.8700492,17.2580441 97.8700492,17.4330617 L102.838659,17.4330617 C102.838659,17.112724 102.780884,16.8216879 102.665335,16.5599534 C102.549786,16.297823 102.376462,16.0360885 102.145364,15.8321652 C101.683168,15.3958091 101.076339,15.1629802 100.441212,15.1629802 C99.9499322,15.104773 99.5455105,15.2211874 99.1701726,15.4540163 L99.1701726,15.4540163 Z M85.3620605,21.5657742 C85.1596532,21.4782653 84.9576388,21.3329453 84.813006,21.1872293 C84.6683732,21.0126076 84.5532172,20.837986 84.4950496,20.6051571 C84.4376681,20.3723282 84.3795006,20.1394993 84.4085843,19.9066705 L84.4085843,15.3083003 L82.9064466,15.3083003 L82.9064466,14.4933992 L84.4085843,14.4933992 L84.4085843,12.4561466 L85.304286,12.4561466 L85.304286,14.4933992 L87.2973107,14.4933992 L87.2973107,15.3083003 L85.304286,15.3083003 L85.304286,19.9066705 C85.2752022,20.1688009 85.3907513,20.4305354 85.5640749,20.6344587 C85.7660892,20.8090803 85.9975803,20.8961932 86.28606,20.8961932 C86.4597766,20.8961932 86.6327071,20.8672875 86.8060307,20.837986 C86.9797473,20.8090803 87.1530709,20.7215715 87.3260014,20.6633643 L87.4128597,21.4782653 C87.2104524,21.5364726 87.0084381,21.5946798 86.8351145,21.652887 C86.6327071,21.7110942 86.4306928,21.7110942 86.2573692,21.7399998 C85.910722,21.7110942 85.6218494,21.6821886 85.3620605,21.5657742 L85.3620605,21.5657742 Z M80.3065929,21.5657742 C80.1041855,21.4782653 79.9021712,21.3329453 79.7579314,21.1872293 C79.6132986,21.0126076 79.4977495,20.837986 79.439975,20.6051571 C79.3822005,20.3723282 79.3244259,20.1394993 79.3531167,19.9066705 L79.3531167,15.3083003 L77.850979,15.3083003 L77.850979,14.4933992 L79.3531167,14.4933992 L79.3531167,12.4561466 L80.2488184,12.4561466 L80.2488184,14.4933992 L82.2422361,14.4933992 L82.2422361,15.3083003 L80.2488184,15.3083003 L80.2488184,19.9066705 C80.2197346,20.1688009 80.3356767,20.4305354 80.5086072,20.6344587 C80.7110146,20.8090803 80.9421127,20.8961932 81.2309853,20.8961932 C81.4043089,20.8961932 81.5776325,20.8672875 81.7509561,20.837986 C81.9242797,20.8090803 82.0976032,20.7215715 82.2709268,20.6633643 L82.3573921,21.4782653 C82.1553778,21.5364726 81.9533634,21.5946798 81.7796468,21.652887 C81.5776325,21.7110942 81.3756182,21.7110942 81.2019016,21.7399998 C80.8556474,21.7110942 80.5663818,21.6821886 80.3065929,21.5657742 L80.3065929,21.5657742 Z M72.2181591,21.5946798 C71.9292864,21.5364726 71.6694976,21.3911525 71.4383995,21.2454365 C70.9184287,20.8672875 70.6291631,20.2852154 70.6582468,19.644936 C70.6291631,19.1792782 70.7737959,18.7136205 71.0626685,18.3643772 C71.3224574,18.0440395 71.6694976,17.8112106 72.0739193,17.6658906 C72.4779479,17.4912689 72.9114534,17.4037601 73.3445658,17.3455529 C73.7493806,17.3166473 74.1247185,17.2873457 74.5291402,17.2873457 L75.5977724,17.2873457 L75.5977724,16.8509895 C75.6555469,16.3560302 75.4248419,15.8614668 75.0491109,15.5411291 C74.6446892,15.2793946 74.1538023,15.1336786 73.6338315,15.1336786 C72.8536789,15.1336786 72.10261,15.3958091 71.495781,15.919674 L70.9758102,15.3083003 C71.3224574,14.959057 71.7559629,14.7262281 72.2181591,14.5516064 C72.6803553,14.3769848 73.1425515,14.3187776 73.6338315,14.2898719 C74.3558166,14.2605704 75.0778017,14.4640976 75.6555469,14.9008497 C76.2046015,15.3958091 76.4934741,16.1232013 76.4066158,16.8509895 L76.4066158,18.5679045 L76.4066158,19.4992199 C76.4066158,19.7613504 76.4066158,20.0230849 76.4356996,20.2559138 C76.4356996,20.4887426 76.4647833,20.7215715 76.4647833,20.8961932 C76.4647833,21.1001164 76.4934741,21.3036437 76.5221648,21.5075669 L75.6846307,21.5075669 C75.6268562,21.129022 75.5977724,20.7508731 75.5977724,20.3723282 L75.5690817,20.3723282 C75.3379835,20.7797787 74.9913364,21.129022 74.5869147,21.3911525 C74.1247185,21.6239814 73.6338315,21.7399998 73.1138608,21.7110942 C72.8249881,21.7110942 72.5070317,21.6821886 72.2181591,21.5946798 L72.2181591,21.5946798 Z M73.4891987,18.0733411 C73.1716353,18.1022467 72.8249881,18.1897555 72.5070317,18.3350756 C72.2468498,18.45149 72.0161447,18.5972061 71.8137374,18.829639 C71.6404138,19.0335622 71.5539485,19.3245983 71.5539485,19.5867288 C71.5539485,19.790256 71.61133,19.9937833 71.6981883,20.1688009 C71.7846536,20.3434226 71.9292864,20.459837 72.0739193,20.5758555 C72.2181591,20.6926659 72.3914827,20.7797787 72.59389,20.8090803 C72.7668206,20.8672875 72.9692279,20.8961932 73.1716353,20.8961932 C73.575664,20.9254948 73.9800856,20.837986 74.3558166,20.6926659 C74.6446892,20.5758555 74.9048711,20.3723282 75.1068854,20.1394993 C75.280209,19.9066705 75.4248419,19.644936 75.4826164,19.3538999 C75.5399979,19.0628638 75.5977724,18.7718277 75.5977724,18.4807916 L75.5977724,18.0151339 L74.5869147,18.0151339 C74.2111838,17.9858323 73.8358458,18.0151339 73.4891987,18.0733411 L73.4891987,18.0733411 Z M111.967034,21.5364726 L109.887151,15.773958 L109.85846,15.773958 L107.893733,21.5364726 L106.969734,21.5364726 L104.774302,14.4933992 L105.785159,14.4933992 L107.489704,20.4016298 L107.518395,20.4016298 L109.482729,14.4933992 L110.349347,14.4933992 L112.42923,20.4016298 L112.457921,20.4016298 L114.104691,14.4933992 L115,14.4933992 L112.949201,21.5364726 L111.967034,21.5364726 Z M93.9991559,21.5364726 L93.9991559,17.3748545 C93.9991559,17.0838184 93.9704651,16.8216879 93.9122975,16.5306518 C93.854523,16.2689173 93.7680577,16.0360885 93.6525087,15.8032596 C93.5369596,15.5993364 93.3345523,15.4247147 93.1325379,15.2793946 C92.8436653,15.1336786 92.5547927,15.0754714 92.2372293,15.0754714 C91.9192729,15.0754714 91.6013165,15.1336786 91.2837531,15.2500931 C90.9948804,15.3665075 90.7346986,15.5411291 90.5039935,15.773958 C90.2728954,16.0360885 90.0991788,16.3271246 89.9836297,16.6759719 C89.8393899,17.0838184 89.7816154,17.5201745 89.8103061,17.9569267 L89.8103061,21.4782653 L88.9149975,21.4782653 L88.9149975,9.95323624 L89.8103061,9.95323624 L89.8103061,15.6575436 L89.8393899,15.6575436 C90.0414042,15.2500931 90.3593606,14.9008497 90.7346986,14.6680209 C91.168204,14.3769848 91.6881748,14.2316647 92.2081455,14.2605704 C92.6703417,14.2316647 93.1325379,14.3187776 93.5369596,14.5227008 C93.854916,14.6680209 94.1437887,14.9008497 94.345803,15.1918858 C94.5478173,15.4829219 94.6924502,15.8032596 94.7502247,16.1525029 C94.837083,16.5306518 94.8657738,16.9091967 94.8657738,17.2873457 L94.8657738,21.4782653 L93.9991559,21.5364726 Z M67.3941826,21.5364726 L67.3941826,12.0197905 L67.3650988,12.0197905 L63.2917981,21.5364726 L62.8586857,21.5364726 L58.7276104,12.0197905 L58.6989197,12.0197905 L58.6989197,21.5364726 L57.687669,21.5364726 L57.687669,10.7392317 L59.1901997,10.7392317 L63.0897838,19.790256 L66.9893678,10.7392317 L68.4050403,10.7392317 L68.4050403,21.5364726 L67.3941826,21.5364726 Z" id="Fill-32"></path>
                <path d="M24.8139629,0 C38.5069189,0 49.6283189,11.2046914 49.6283189,24.999802 C49.6283189,38.7949126 38.5069189,50 24.8139629,50 C11.0927092,49.9706984 0,38.7949126 0,24.999802 C0,11.2046914 11.121793,0 24.8139629,0 Z M24.8139629,1.94974381 C12.1904253,1.94974381 1.96433393,12.2524213 1.93564318,24.999802 C1.93564318,37.7182771 12.1617345,48.0498602 24.8139629,48.0498602 C37.4669774,48.0498602 47.6930688,37.7471827 47.6930688,24.999802 C47.6930688,12.2524213 37.4378937,1.94974381 24.8139629,1.94974381 Z M26.6627478,20.459639 C27.7166349,21.6137477 27.8439518,23.1890315 27.8515217,23.8349283 L27.8513106,23.9814526 C27.8503774,24.0432855 27.8486005,24.0873084 27.8477704,24.1105244 L27.8473221,31.0822583 C27.8764059,31.4897088 27.5875333,31.7807449 27.2408861,31.7807449 C26.894239,31.7807449 26.5762825,31.4897088 26.5762825,31.1115599 L26.5762825,24.0973922 C26.5762825,24.0395809 26.6918316,22.3804772 25.7387484,21.3620489 C25.1319194,20.7799767 24.323076,20.459639 23.4851488,20.5178463 C22.734473,20.459639 21.9834041,20.7506751 21.4343496,21.3034457 C20.5484735,22.279819 20.5913329,23.8976843 20.5964425,24.0308113 L20.5968155,31.1115599 C20.5968155,31.2835752 20.526737,31.4484822 20.4107179,31.5715534 C20.3200949,31.6766636 20.1921927,31.7477544 20.0447211,31.7717615 C20.0392991,31.7719385 20.0338946,31.7728167 20.0284661,31.7736276 C19.997053,31.7785337 19.9649624,31.7807449 19.9322119,31.7807449 C19.5855647,31.7807449 19.2680014,31.4897088 19.2680014,31.1115599 L19.2680014,24.0973922 C19.2680014,24.0934052 19.2652497,24.0478873 19.2639925,23.9685525 L19.2637583,23.825152 C19.2642875,23.7798286 19.2654174,23.7295302 19.2674354,23.6747788 C19.2412812,23.1029438 19.0978859,22.0753529 18.4300742,21.3620489 C17.8236382,20.7799767 17.0147948,20.459639 16.1768676,20.5178463 C15.4257988,20.459639 14.6460392,20.7506751 14.1256754,21.3034457 C13.3941759,22.1100149 13.295971,23.354351 13.2868015,23.837817 L13.2869747,24.0052016 C13.2875408,24.0276551 13.2881413,24.0395809 13.2881413,24.0395809 L13.2881413,31.1115599 C13.2881413,31.4608032 12.9992686,31.7807449 12.6239307,31.7807449 C12.2481998,31.7807449 11.9593271,31.4897088 11.9593271,31.1115599 L11.9593271,24.0973922 C11.9593271,24.0684865 11.8150873,21.8566123 13.1439015,20.4014318 C13.9236611,19.5865308 15.0213771,19.1501746 16.1481769,19.2083818 C17.361442,19.1501746 18.5169325,19.6158324 19.3544666,20.459639 C19.5689429,20.6945113 19.7450338,20.9468271 19.8895433,21.205203 C20.0382152,20.9250573 20.2233511,20.6520245 20.4521827,20.4014318 C21.2323353,19.5865308 22.3300513,19.1501746 23.4564581,19.2083818 C24.6697231,19.1501746 25.8252137,19.6158324 26.6627478,20.459639 Z M30.2160778,14.6096157 C30.5627249,14.6096157 30.8515976,14.9006518 30.8806813,15.2791967 L30.879877,20.2317416 C31.6449552,19.5263993 32.6657662,19.1543554 33.7116332,19.2083818 C34.8958145,19.1501746 36.0799958,19.6158324 36.9179229,20.459639 C38.1992794,21.8628487 38.1109212,23.8886663 38.1029755,24.1359594 L38.1024972,31.1115599 C38.1024972,31.4897088 37.8136246,31.7807449 37.4669774,31.7807449 C37.1203303,31.7807449 36.8023739,31.4897088 36.8023739,31.1115599 L36.8023739,24.0973922 C36.8023739,24.0395809 36.9179229,22.3804772 35.9648397,21.3620489 C35.3580107,20.7799767 34.5491673,20.4885447 33.7403239,20.5178463 C32.9892551,20.459639 32.2381862,20.7506751 31.6895247,21.2745401 C31.1412152,21.8604289 30.9464305,22.6771749 30.8798969,23.2710831 L30.8806813,31.1115599 C30.8806813,31.4897088 30.5918087,31.7807449 30.2160778,31.7807449 L30.202693,31.7805672 C30.1976074,31.7806854 30.1925052,31.7807449 30.187387,31.7807449 C29.8403468,31.7807449 29.5518672,31.4897088 29.5227834,31.1115599 L29.5227834,24.0973922 C29.5227834,24.0934052 29.5200393,24.0478873 29.5187939,23.9685525 L29.5185804,23.825152 C29.5202991,23.6796905 29.5282101,23.4829847 29.5518048,23.2522907 L29.5518672,15.2791967 C29.5518672,14.9299534 29.8403468,14.6096157 30.2160778,14.6096157 Z" id="Fill-34"></path>
            </g>
        </g>
    </g>
</svg>