<svg xmlns="http://www.w3.org/2000/svg" viewBox="0 0 113.4 113.4"><defs><style>.cls-4{fill:#5dbac4}</style><clipPath id="clip-path"><path d="M56.7 113.4A56.7 56.7 0 1 0 0 56.7a56.71 56.71 0 0 0 56.7 56.7" fill="none"/></clipPath></defs><g id="Layer_2" data-name="Layer 2"><g id="Layer_1-2" data-name="Layer 1"><path d="M56.7 113.4A56.7 56.7 0 1 0 0 56.7a56.71 56.71 0 0 0 56.7 56.7z" fill="#e6f4f7"/><g clip-path="url(#clip-path)"><path class="cls-4" d="M90.54 30.68a7.93 7.93 0 0 0-5.65-2.34H30.48a8 8 0 0 0-8 8v36.71a8 8 0 0 0 8 8h17.94l7.26 12a2.11 2.11 0 0 0 1.79 1 2.13 2.13 0 0 0 1.79-1l7.25-12h18.41a8 8 0 0 0 8-8V36.34a7.94 7.94 0 0 0-2.35-5.65zm-5.62 48H65.86a1.2 1.2 0 0 0-1 .58l-7.36 12.2-7.39-12.21a1.19 1.19 0 0 0-1-.58H30.53a5.62 5.62 0 0 1-5.62-5.61V36.35a5.62 5.62 0 0 1 5.61-5.62h54.41a5.62 5.62 0 0 1 5.62 5.61v36.71a5.61 5.61 0 0 1-5.61 5.61z"/><path class="cls-4" d="M79.38 61.71H36a1.19 1.19 0 1 0 0 2.38h43.38a1.19 1.19 0 0 0 0-2.38zM79.38 53.21H36a1.19 1.19 0 1 0 0 2.38h43.38a1.19 1.19 0 1 0 0-2.38zM79.38 44.71H36a1.19 1.19 0 0 0 0 2.38h43.38a1.19 1.19 0 1 0 0-2.38z"/></g></g></g></svg>