<?xml version="1.0" encoding="utf-8"?><svg width="167" height="26" viewBox="0 0 167 26" fill="none" xmlns="http://www.w3.org/2000/svg">
<path fill-rule="evenodd" clip-rule="evenodd" d="M0.0337592 24.6528C0.720982 10.9201 11.8607 0 25.5003 0C39.2335 0 50.4313 11.0684 50.9788 24.9335C50.9935 25.2865 51 25.6424 51 26H44.3897C44.3897 25.6 44.3774 25.2043 44.3531 24.8115C43.7494 14.7429 35.5234 6.74068 25.5003 6.74068C15.5151 6.74068 7.3145 14.6818 6.6558 24.6949C6.62623 25.1259 6.61158 25.5611 6.61158 26H0C0 25.5472 0.0109914 25.0986 0.0337592 24.6528ZM91.7769 3.84968C93.2395 4.41332 94.5196 5.20985 95.5814 6.21662C96.6432 7.22471 97.4877 8.44752 98.0907 9.85137C98.6941 11.2563 99 12.8204 99 14.5003C99 16.1809 98.6941 17.7445 98.0907 19.1489C97.4877 20.553 96.6435 21.7761 95.5814 22.7836C94.5209 23.7902 93.2409 24.5859 91.7769 25.1508C90.3143 25.7142 88.7129 26 87.0166 26C85.298 26 83.6908 25.7142 82.2398 25.1503C80.7878 24.5867 79.5078 23.7907 78.4359 22.7842C77.3629 21.7766 76.5123 20.5538 75.909 19.1489C75.3059 17.7443 75 16.1804 75 14.5003C75 12.8209 75.3059 11.2565 75.909 9.85137C76.5123 8.44699 77.3629 7.22392 78.4359 6.21636C79.5094 5.20906 80.7892 4.41306 82.2401 3.84994C83.6916 3.28603 85.2985 3 87.0166 3C88.7121 3 90.314 3.28603 91.7769 3.84968ZM87.0166 20.7948C87.9121 20.7948 88.7376 20.6304 89.4691 20.3064C90.2008 19.9817 90.8315 19.5328 91.3434 18.9718C91.8564 18.41 92.2606 17.7406 92.5453 16.983C92.8297 16.2233 92.974 15.3884 92.974 14.5003C92.974 13.6124 92.8297 12.7775 92.5453 12.0173C92.2612 11.26 91.8566 10.5911 91.3434 10.0285C90.8307 9.46692 90.1997 9.01748 89.4691 8.69382C88.7376 8.36963 87.9126 8.20517 87.0166 8.20517C86.098 8.20517 85.2621 8.36963 84.5312 8.69382C83.7998 9.01748 83.169 9.4664 82.6563 10.0285C82.1428 10.5911 81.7383 11.26 81.4544 12.0173C81.17 12.7756 81.026 13.6111 81.026 14.5003C81.026 15.3897 81.17 16.2254 81.4544 16.983C81.7388 17.7406 82.1431 18.41 82.6563 18.9718C83.168 19.5328 83.7987 19.9823 84.5312 20.3064C85.2621 20.6304 86.0986 20.7948 87.0166 20.7948ZM62.1157 9.08363H56V4H74V9.08363H67.9166V26H62.1157V9.08363ZM119.657 6.93453C118.614 5.99349 117.358 5.26097 115.923 4.75726C114.49 4.25459 112.896 4 111.185 4H102V26H111.217C112.909 26 114.492 25.7454 115.923 25.2427C117.357 24.7398 118.614 24.0018 119.657 23.0491C120.702 22.0953 121.529 20.9298 122.115 19.5838C122.703 18.2361 123 16.6885 123 14.9837C123 13.2784 122.703 11.7314 122.115 10.384C121.529 9.03762 120.701 7.87713 119.657 6.93453ZM117.131 14.9837C117.131 15.7761 116.996 16.5415 116.73 17.2594C116.463 17.9768 116.076 18.6107 115.576 19.1446C115.077 19.6785 114.452 20.1119 113.718 20.4326C112.985 20.7541 112.137 20.9168 111.199 20.9168H107.772V9.08395H111.231C112.213 9.08395 113.083 9.23598 113.818 9.53482C114.55 9.83444 115.168 10.2562 115.657 10.7895C116.145 11.3229 116.517 11.9516 116.762 12.6568C117.007 13.3643 117.131 14.1473 117.131 14.9837ZM131.356 4H138.611L138.633 4.05675L147 26H140.369L139.279 22.8591H130.721L129.631 26H123L123.045 25.8813L131.356 4ZM134.983 9.92366L132.3 17.7752H137.667L134.983 9.92366ZM160.548 4L156.016 11.963L151.445 4.04347L151.42 4H145L153.175 17.136V26H158.857V17.136L167 4H160.548ZM25.5003 9C16.752 9 9.5959 16.0137 9.03556 24.8791C9.01143 25.2497 9 25.6231 9 26H15.4172C15.4172 25.5928 15.4398 25.1921 15.4845 24.7969C16.0649 19.6335 20.3355 15.6112 25.5003 15.6112C30.6924 15.6112 34.9808 19.6751 35.5249 24.8768C35.5653 25.2466 35.5838 25.6195 35.5838 26H42C42 25.6362 41.9893 25.2767 41.968 24.9186C41.427 16.0335 34.2612 9 25.5003 9ZM17.1528 23.4852C17.9037 19.7914 21.3558 17 25.4999 17C29.785 17 33.3274 19.9823 33.9139 23.8621C33.9707 24.2335 34 24.6133 34 25H17C17 24.4815 17.0521 23.9756 17.1528 23.4852Z" fill="white"/>
</svg>
